HIERARCHY
ROOT Hips
{
	OFFSET 0.000000 0.000000 0.000000
	CHANNELS 6 Xposition Yposition Zposition Xrotation Yrotation Zrotation
	JOINT LeftUpLeg_virtual
	{
		OFFSET 0.000000 0.000000 0.000000
		CHANNELS 3 Xrotation Yrotation Zrotation
		JOINT LeftUpLeg
		{
			OFFSET 10.205400 -3.823500 0.155100
			CHANNELS 3 Xrotation Yrotation Zrotation
			JOINT LeftLeg
			{
				OFFSET 0.708757 -12.982077 0.567790
				CHANNELS 3 Xrotation Yrotation Zrotation
				JOINT LeftFoot
				{
					OFFSET -0.708756 -10.717838 -2.184338
					CHANNELS 3 Xrotation Yrotation Zrotation
					JOINT LeftToeBase
					{
						OFFSET 0.108149 -7.191104 7.560241
						CHANNELS 3 Xrotation Yrotation Zrotation
						JOINT LeftToe_End
						{
							OFFSET 0.070230 0.081724 4.490308
							CHANNELS 3 Xrotation Yrotation Zrotation
							End Site
							{
								OFFSET 0 0 0
							}
						}
					}
				}
			}
		}
	}
	JOINT RightUpLeg_virtual
	{
		OFFSET 0.000000 0.000000 0.000000
		CHANNELS 3 Xrotation Yrotation Zrotation
		JOINT RightUpLeg
		{
			OFFSET -10.205400 -3.823500 0.005500
			CHANNELS 3 Xrotation Yrotation Zrotation
			JOINT RightLeg
			{
				OFFSET -0.708756 -12.982134 0.610632
				CHANNELS 3 Xrotation Yrotation Zrotation
				JOINT RightFoot
				{
					OFFSET 0.708754 -10.717769 -1.945823
					CHANNELS 3 Xrotation Yrotation Zrotation
					JOINT RightToeBase
					{
						OFFSET -0.108140 -7.191069 7.372968
						CHANNELS 3 Xrotation Yrotation Zrotation
						JOINT RightToe_End
						{
							OFFSET -0.070227 0.081735 4.479403
							CHANNELS 3 Xrotation Yrotation Zrotation
							End Site
							{
								OFFSET 0 0 0
							}
						}
					}
				}
			}
		}
	}
	JOINT Spine_virtual
	{
		OFFSET 0.000000 0.000000 0.000000
		CHANNELS 3 Xrotation Yrotation Zrotation
		JOINT Spine
		{
			OFFSET 0.000000 6.876099 0.125700
			CHANNELS 3 Xrotation Yrotation Zrotation
			JOINT Spine1
			{
				OFFSET 0.000000 5.730043 0.104720
				CHANNELS 3 Xrotation Yrotation Zrotation
				JOINT Spine1_split
				{
					OFFSET 0.000000 5.730043 0.104720
					CHANNELS 3 Xrotation Yrotation Zrotation
					JOINT Spine2
					{
						OFFSET 0.000000 5.730043 0.104720
						CHANNELS 3 Xrotation Yrotation Zrotation
						JOINT Neck_virtual
						{
							OFFSET 0.000000 0.000000 0.000000
							CHANNELS 3 Xrotation Yrotation Zrotation
							JOINT Neck
							{
								OFFSET 0.000000 10.314075 0.188496
								CHANNELS 3 Xrotation Yrotation Zrotation
								JOINT Head
								{
									OFFSET 0.000000 7.643700 -2.377400
									CHANNELS 3 Xrotation Yrotation Zrotation
									JOINT HeadTop_End
									{
										OFFSET 0.000000 43.788605 -13.619600
										CHANNELS 3 Xrotation Yrotation Zrotation
										End Site
										{
											OFFSET 0 0 0
										}
									}
								}
							}
						}
						JOINT LeftShoulder_virtual
						{
							OFFSET 0.000000 0.000000 0.000000
							CHANNELS 3 Xrotation Yrotation Zrotation
							JOINT LeftShoulder
							{
								OFFSET 2.196100 4.412489 0.087492
								CHANNELS 3 Xrotation Yrotation Zrotation
								JOINT LeftShoulder_split
								{
									OFFSET 2.196100 4.412489 0.087492
									CHANNELS 3 Xrotation Yrotation Zrotation
									JOINT LeftArm
									{
										OFFSET 8.771219 -2.981674 -0.026999
										CHANNELS 3 Xrotation Yrotation Zrotation
										JOINT LeftForeArm
										{
											OFFSET 8.512804 0.000000 -0.000000
											CHANNELS 3 Xrotation Yrotation Zrotation
											JOINT LeftHand
											{
												OFFSET 18.484802 0.000000 -0.000000
												CHANNELS 3 Xrotation Yrotation Zrotation
												End Site
												{
													OFFSET 0 0 0
												}
											}
										}
									}
								}
							}
						}
						JOINT RightShoulder_virtual
						{
							OFFSET 0.000000 0.000000 0.000000
							CHANNELS 3 Xrotation Yrotation Zrotation
							JOINT RightShoulder
							{
								OFFSET -2.196100 4.412496 0.070690
								CHANNELS 3 Xrotation Yrotation Zrotation
								JOINT RightShoulder_split
								{
									OFFSET -2.196100 4.412496 0.070690
									CHANNELS 3 Xrotation Yrotation Zrotation
									JOINT RightArm
									{
										OFFSET -8.771282 -2.981682 -0.094208
										CHANNELS 3 Xrotation Yrotation Zrotation
										JOINT RightForeArm
										{
											OFFSET -8.494598 0.000000 0.000000
											CHANNELS 3 Xrotation Yrotation Zrotation
											JOINT RightHand
											{
												OFFSET -18.483803 0.000000 0.000001
												CHANNELS 3 Xrotation Yrotation Zrotation
												End Site
												{
													OFFSET 0 0 0
												}
											}
										}
									}
								}
							}
						}
					}
				}
			}
		}
	}
}
MOTION
Frames: 5
Frame Time: 0.03333333
-0.772636 27.816645 -0.112972 0.000000 0.000000 0.000000 -6.049469 -64.423840 -1.682178 -25.253352 5.085482 34.548739 46.352860 -9.863685 -6.642577 -19.063230 -3.043091 -14.981386 -2.885270 -0.225393 0.346798 0.000000 0.000000 0.000000 -8.885136 -61.546070 -2.190451 -19.425881 -8.531530 -35.855187 49.084963 8.958324 -6.452697 -30.976042 -0.372476 26.419090 -6.054176 1.568208 -0.299293 0.000000 0.000000 0.000000 -5.266277 -62.328905 -0.553138 9.607256 -1.665565 -0.956485 5.045141 -0.205783 -5.087027 1.693262 -10.123576 2.031565 0.000000 0.000000 0.000000 6.890536 0.259867 -4.373735 8.152378 21.244397 10.676411 12.468416 27.875330 -17.703837 0.000000 0.000000 0.000000 5.118753 -0.190778 -3.763856 -9.644371 -8.471927 -6.593025 0.931504 -3.086678 -2.032244 -18.551009 23.860829 -24.850190 11.876962 -45.285220 3.792801 0.000000 0.000000 0.000000 3.018106 -1.026236 -4.155635 -9.810880 2.743926 7.397785 -5.238518 0.762832 3.128933 -44.431521 -17.572537 42.765833 176.722457 64.619873 -161.606948 0.000000 0.000000 0.000000 
-0.959421 27.989283 0.224424 0.000000 0.000000 0.000000 -6.927551 -63.752139 -2.321668 -24.758406 5.433348 33.916633 45.559906 -9.831229 -6.101577 -18.570757 -3.327905 -14.245007 -2.982146 -0.153382 0.591115 0.000000 0.000000 0.000000 -9.907684 -61.096315 -2.979528 -18.122367 -8.922728 -36.069754 48.021499 8.743402 -6.319950 -29.967827 -0.946227 29.175317 -8.508793 1.715549 -0.872622 0.000000 0.000000 0.000000 -7.525393 -61.819516 -2.027234 9.023821 -2.045458 -0.427933 4.632462 -0.382794 -4.504501 0.375663 -9.166392 1.579864 0.000000 0.000000 0.000000 5.905154 0.076091 -3.847463 9.316443 20.728075 10.798711 12.404357 27.111169 -16.696124 0.000000 0.000000 0.000000 4.562994 -0.377245 -3.464914 -9.483413 -8.572623 -7.869129 1.477517 -2.556271 -3.295435 -18.376428 22.362140 -27.202367 14.100095 -48.445852 5.817687 0.000000 0.000000 0.000000 2.900134 -1.093883 -3.713480 -9.989230 1.731088 8.900424 -4.582446 0.066763 1.982331 -40.544956 -16.270127 39.148988 173.975833 65.980112 -158.274935 0.000000 0.000000 0.000000 
-1.234507 28.325151 0.550117 0.000000 0.000000 0.000000 -8.426725 -61.521577 -3.442185 -23.635456 5.474137 31.756773 43.514063 -9.280460 -4.547658 -17.323325 -2.963165 -14.332903 -3.046407 0.083752 0.673372 0.000000 0.000000 0.000000 -10.940914 -58.965310 -3.897303 -13.902471 -11.086702 -35.933065 44.794908 7.495649 -6.022783 -29.595046 -2.062283 30.921981 -8.206429 2.053891 -1.485976 0.000000 0.000000 0.000000 -9.356542 -60.007747 -3.410523 7.758343 -2.617614 0.426951 3.663191 -0.688984 -2.997802 -0.274175 -7.046201 1.069997 0.000000 0.000000 0.000000 4.172857 -0.243871 -2.306234 9.766468 19.304495 11.498039 13.645813 24.285769 -15.883856 0.000000 0.000000 0.000000 3.343203 -0.576796 -2.079974 -9.412555 -7.888197 -9.810418 1.182354 -1.451642 -4.424795 -15.895749 19.581585 -30.669032 18.682779 -53.799126 9.655838 0.000000 0.000000 0.000000 2.034474 -1.303072 -2.325158 -9.652263 0.435139 10.939696 -4.362336 1.084841 1.013054 -36.490074 -20.072265 29.757013 -174.979024 60.605757 -167.928684 0.000000 0.000000 0.000000 
-1.529679 28.733257 0.859165 0.000000 0.000000 0.000000 -10.287013 -58.412816 -4.764701 -22.009115 4.967662 28.303175 40.751330 -8.406114 -2.227528 -15.606245 -1.987301 -15.203105 -3.185613 0.470323 0.465927 0.000000 0.000000 0.000000 -11.744999 -55.464213 -4.613463 -7.621549 -14.576679 -35.248096 40.488170 5.153552 -5.668718 -29.249366 -3.618444 31.376878 -6.431125 2.504890 -1.784039 0.000000 0.000000 0.000000 -10.677147 -56.951528 -4.564360 6.246334 -3.199090 1.377532 2.334611 -0.924997 -0.945501 -0.192157 -4.796835 0.718218 0.000000 0.000000 0.000000 2.015911 -0.539132 -0.165690 8.867947 17.333850 12.888044 15.659988 20.155846 -15.418122 0.000000 0.000000 0.000000 1.632674 -0.683832 0.024261 -9.434711 -6.556623 -11.810360 0.552023 0.003769 -4.828087 -11.637042 16.320356 -33.681626 26.121391 -59.863582 15.921652 0.000000 0.000000 0.000000 0.552301 -1.552767 -0.368135 -8.871384 -0.801631 13.156908 -4.029421 3.355819 0.631627 -34.154108 -28.980827 17.496347 -162.621285 50.105062 -178.406672 0.000000 0.000000 0.000000 
-1.849898 29.152634 1.267906 0.000000 0.000000 0.000000 -12.228337 -54.791258 -5.918545 -20.309142 3.740400 23.903955 38.120536 -7.510131 0.564548 -13.636025 -0.697084 -16.728861 -3.574231 0.982013 -0.026539 0.000000 0.000000 0.000000 -12.384971 -51.157871 -5.040434 -0.458912 -18.412498 -33.912169 36.198671 2.324052 -5.465163 -28.152469 -5.366633 31.238478 -6.257497 2.867889 -1.247975 0.000000 0.000000 0.000000 -11.625979 -52.999628 -5.388489 4.857851 -3.558676 2.189411 0.848664 -1.016307 1.243618 -0.196754 -3.010766 0.494998 0.000000 0.000000 0.000000 -0.173149 -0.710816 2.047861 6.010764 15.056781 14.805530 17.614523 15.725484 -15.432152 0.000000 0.000000 0.000000 -0.282061 -0.656204 2.343118 -9.523603 -5.003672 -13.322307 0.288326 0.902218 -4.962025 -6.779649 13.287281 -35.139052 36.127087 -64.778197 24.603018 0.000000 0.000000 0.000000 -1.323499 -1.693742 1.742432 -7.960521 -1.824034 15.395322 -3.141774 6.945898 0.565092 -36.947792 -40.311961 4.146803 -153.340738 39.090911 174.399660 0.000000 0.000000 0.000000 
